# xmcd CD database file
#
# Track frame offsets:
#	150
#	15729
#	32847
#	45573
#	66297
#	95122
#	110496
#	128139
#	154373
#	188642
#	212880
#	227478
#	251317
#	277503
#
# Disc length: 4502 seconds
#
# Revision: 0
# Processed by: cddbd v1.5.2PL0 Copyright (c) Steve Scherf et al.
# Submitted via: CDex 1.50
#
DISCID=ba11940e
DTITLE=Popa Chubby With Galea - Vicious Country
DYEAR=2008
DGENRE=Blues
TTITLE0=Race With The Devil
TTITLE1=Six Days On The Road
TTITLE2=Baby You Don't Care
TTITLE3=Satan Is Real - Straight To Hell
TTITLE4=Tonight The Bottle Let Me Down
TTITLE5=I'll Fly Away - I Shall Not Be Moved
TTITLE6=Mona Lisa Tattoo
TTITLE7=Break Me Down
TTITLE8=Sleepwalk
TTITLE9=Start All Over Again
TTITLE10=Sam Lay's Pistol
TTITLE11=Harper Valley P.T.A.
TTITLE12=Act Naturally
TTITLE13=Data
EXTD=YEAR: 2008
EXTT0=
EXTT1=
EXTT2=
EXTT3=
EXTT4=
EXTT5=
EXTT6=
EXTT7=
EXTT8=
EXTT9=
EXTT10=
EXTT11=
EXTT12=
EXTT13=
PLAYORDER=
